        CONTROL INFO 2.4.6
** GAMBIT NEUTRAL FILE
unstructured_RB_tri_h8
PROGRAM:                Python     VERSION:  1.0

     NUMNP     NELEM     NGRPS    NBSETS     NDFCD     NDFVL
       561       256         1         0         2         2
ENDOFSECTION
   NODAL COORDINATES 2.4.6
         1   0.00000000000e+00   0.00000000000e+00
         2   1.25000000000e-01   0.00000000000e+00
         3   2.50000000000e-01   0.00000000000e+00
         4   3.75000000000e-01   0.00000000000e+00
         5   5.00000000000e-01   0.00000000000e+00
         6   6.25000000000e-01   0.00000000000e+00
         7   7.50000000000e-01   0.00000000000e+00
         8   8.75000000000e-01   0.00000000000e+00
         9   1.00000000000e+00   0.00000000000e+00
        10   0.00000000000e+00   1.25000000000e-01
        11   1.09265357164e-01   1.39531112953e-01
        12   2.78055071990e-01   1.26087219907e-01
        13   3.85452340819e-01   1.04839144266e-01
        14   4.74743620975e-01   1.48602887933e-01
        15   6.21364979135e-01   1.48774397234e-01
        16   7.74154994958e-01   1.38095909549e-01
        17   8.87340843743e-01   1.52089300447e-01
        18   1.00000000000e+00   1.25000000000e-01
        19   0.00000000000e+00   2.50000000000e-01
        20   1.07508434722e-01   2.66098094185e-01
        21   2.23849660596e-01   2.57288657715e-01
        22   3.53743475067e-01   2.25930566763e-01
        23   4.90006261560e-01   2.38499280008e-01
        24   6.22824572106e-01   2.22983368596e-01
        25   7.35401314268e-01   2.74179448632e-01
        26   8.94736025214e-01   2.20129399930e-01
        27   1.00000000000e+00   2.50000000000e-01
        28   0.00000000000e+00   3.75000000000e-01
        29   9.94790469716e-02   3.52937181835e-01
        30   2.56160500854e-01   3.54115280004e-01
        31   3.97171369023e-01   3.98559623682e-01
        32   5.06351327606e-01   3.74654382849e-01
        33   6.51999272571e-01   3.65056280958e-01
        34   7.64048835068e-01   4.06200614118e-01
        35   8.97534457337e-01   3.77873430984e-01
        36   1.00000000000e+00   3.75000000000e-01
        37   0.00000000000e+00   5.00000000000e-01
        38   1.52354559923e-01   5.12241679878e-01
        39   2.49686746255e-01   4.76265410540e-01
        40   3.60860823906e-01   5.16138824261e-01
        41   4.96986169217e-01   5.23985475428e-01
        42   6.35314932712e-01   4.98445696549e-01
        43   7.39430683154e-01   4.96081544060e-01
        44   9.00215875426e-01   4.77694673329e-01
        45   1.00000000000e+00   5.00000000000e-01
        46   0.00000000000e+00   6.25000000000e-01
        47   1.09928337415e-01   6.19623955715e-01
        48   2.40965404997e-01   6.32495685540e-01
        49   3.44063895857e-01   5.96486217575e-01
        50   5.08037784006e-01   6.07482835860e-01
        51   6.11398919214e-01   6.06489294645e-01
        52   7.23005480593e-01   6.55073343934e-01
        53   8.82301811079e-01   5.96534367619e-01
        54   1.00000000000e+00   6.25000000000e-01
        55   0.00000000000e+00   7.50000000000e-01
        56   1.21305425680e-01   7.58720953231e-01
        57   2.28137646316e-01   7.59573151362e-01
        58   3.57370553943e-01   7.40345093844e-01
        59   4.98395819708e-01   7.21022157796e-01
        60   6.23523053443e-01   7.45938152768e-01
        61   7.34702022114e-01   7.29458039610e-01
        62   8.62347829259e-01   7.45420264720e-01
        63   1.00000000000e+00   7.50000000000e-01
        64   0.00000000000e+00   8.75000000000e-01
        65   1.23922599550e-01   8.96352559062e-01
        66   2.31998689772e-01   8.87038440597e-01
        67   3.74726912292e-01   8.73165324570e-01
        68   4.84141332864e-01   8.68730332069e-01
        69   6.46155165779e-01   8.50564992912e-01
        70   7.30008161881e-01   8.81439909484e-01
        71   8.97634768219e-01   8.75259496814e-01
        72   1.00000000000e+00   8.75000000000e-01
        73   0.00000000000e+00   1.00000000000e+00
        74   1.31945025239e-01   1.01934970569e+00
        75   2.31822189683e-01   1.02291851639e+00
        76   3.91242026320e-01   9.99736857896e-01
        77   4.84328785596e-01   9.92111387877e-01
        78   5.99098233249e-01   9.98686887110e-01
        79   7.57378545145e-01   1.00195266095e+00
        80   8.77310520690e-01   1.01985604966e+00
        81   1.00000000000e+00   1.00000000000e+00
        82   0.00000000000e+00   1.12500000000e+00
        83   1.09260280616e-01   1.15037436144e+00
        84   2.61551436540e-01   1.10765400115e+00
        85   3.48804477891e-01   1.11174145339e+00
        86   5.23442100047e-01   1.14638841251e+00
        87   6.20543398846e-01   1.13449174336e+00
        88   7.57399637212e-01   1.15409155890e+00
        89   8.63319094012e-01   1.13388023346e+00
        90   1.00000000000e+00   1.12500000000e+00
        91   0.00000000000e+00   1.25000000000e+00
        92   1.06877684903e-01   1.26091674906e+00
        93   2.73125042423e-01   1.23062423429e+00
        94   4.04551862650e-01   1.23209582416e+00
        95   4.96362021449e-01   1.27268935699e+00
        96   6.17421843426e-01   1.23962024577e+00
        97   7.35996692579e-01   1.26165223641e+00
        98   9.04131506827e-01   1.24596098243e+00
        99   1.00000000000e+00   1.25000000000e+00
       100   0.00000000000e+00   1.37500000000e+00
       101   1.04289302783e-01   1.39514515280e+00
       102   2.33759003650e-01   1.36321559151e+00
       103   3.92500491021e-01   1.36482084068e+00
       104   4.81485474760e-01   1.34822511883e+00
       105   6.28253184673e-01   1.38278919228e+00
       106   7.41687133878e-01   1.39241325940e+00
       107   8.75455107587e-01   1.37569007889e+00
       108   1.00000000000e+00   1.37500000000e+00
       109   0.00000000000e+00   1.50000000000e+00
       110   1.11364393832e-01   1.47479518792e+00
       111   2.24086330758e-01   1.50255739612e+00
       112   3.73863353486e-01   1.51555522858e+00
       113   5.23958930907e-01   1.49164423178e+00
       114   6.52951735376e-01   1.52350815477e+00
       115   7.20461482620e-01   1.49730094860e+00
       116   9.01109515281e-01   1.47599352465e+00
       117   1.00000000000e+00   1.50000000000e+00
       118   0.00000000000e+00   1.62500000000e+00
       119   1.49782546378e-01   1.64079932054e+00
       120   2.29245612496e-01   1.59864082536e+00
       121   3.64466451204e-01   1.64430252773e+00
       122   4.92384789101e-01   1.60325002024e+00
       123   6.15428059855e-01   1.60155976782e+00
       124   7.51015981320e-01   1.61102726890e+00
       125   8.44312126711e-01   1.62029421197e+00
       126   1.00000000000e+00   1.62500000000e+00
       127   0.00000000000e+00   1.75000000000e+00
       128   9.92128220533e-02   1.72090872042e+00
       129   2.49005301091e-01   1.75606445377e+00
       130   3.73826732959e-01   1.76512245466e+00
       131   5.17660718145e-01   1.77992211749e+00
       132   6.54034973446e-01   1.75338499676e+00
       133   7.62943527602e-01   1.77699177949e+00
       134   8.60858545057e-01   1.77824788180e+00
       135   1.00000000000e+00   1.75000000000e+00
       136   0.00000000000e+00   1.87500000000e+00
       137   1.41757989753e-01   1.85435386858e+00
       138   2.60985713516e-01   1.89027708887e+00
       139   4.04845751752e-01   1.86006056888e+00
       140   5.22919361850e-01   1.85076489380e+00
       141   5.96631750915e-01   1.90271172218e+00
       142   7.36895232068e-01   1.88647433701e+00
       143   8.97649443606e-01   1.90363623306e+00
       144   1.00000000000e+00   1.87500000000e+00
       145   0.00000000000e+00   2.00000000000e+00
       146   1.25000000000e-01   2.00000000000e+00
       147   2.50000000000e-01   2.00000000000e+00
       148   3.75000000000e-01   2.00000000000e+00
       149   5.00000000000e-01   2.00000000000e+00
       150   6.25000000000e-01   2.00000000000e+00
       151   7.50000000000e-01   2.00000000000e+00
       152   8.75000000000e-01   2.00000000000e+00
       153   1.00000000000e+00   2.00000000000e+00
       154   5.48054300055e-01   1.48688642584e-01
       155   4.87371810487e-01   7.43014439665e-02
       156   5.60682489568e-01   7.43871986172e-02
       157   6.23182489568e-01   7.43871986172e-02
       158   5.62500000000e-01   0.00000000000e+00
       159   6.87500000000e-01   0.00000000000e+00
       160   6.85682489568e-01   7.43871986172e-02
       161   5.49641687076e-02   6.22311977857e-01
       162   0.00000000000e+00   5.62500000000e-01
       163   5.49641687076e-02   5.59811977857e-01
       164   5.49641687076e-02   6.84811977857e-01
       165   0.00000000000e+00   6.87500000000e-01
       166   6.10815875458e-01   1.95135586109e+00
       167   5.62500000000e-01   2.00000000000e+00
       168   5.48315875458e-01   1.95135586109e+00
       169   4.45743725552e-01   1.77252228607e+00
       170   4.33105761030e-01   1.68418623745e+00
       171   5.05022753623e-01   1.69158606886e+00
       172   3.69146592081e-01   1.70471249120e+00
       173   4.28425620153e-01   1.62377627399e+00
       174   3.11416017025e-01   1.76059345422e+00
       175   3.06735876148e-01   1.70018349075e+00
       176   1.17132678582e-01   6.97655564763e-02
       177   1.87500000000e-01   0.00000000000e+00
       178   1.79632678582e-01   6.97655564763e-02
       179   5.46326785822e-02   1.32265556476e-01
       180   5.46326785822e-02   1.94765556476e-01
       181   0.00000000000e+00   1.87500000000e-01
       182   6.25000000000e-02   6.25000000000e-02
       183   0.00000000000e+00   6.25000000000e-02
       184   6.25000000000e-02   0.00000000000e+00
       185   4.30097980897e-01   1.26721016099e-01
       186   4.42726170409e-01   5.24195721330e-02
       187   4.14243548021e-01   1.87266727348e-01
       188   3.69597907943e-01   1.65384855515e-01
       189   4.82374941267e-01   1.93551083970e-01
       190   5.55685620348e-01   1.93636838621e-01
       191   4.21874868313e-01   2.32214923385e-01
       192   4.43588815292e-01   3.18529451845e-01
       193   4.98178794583e-01   3.06576831428e-01
       194   4.51761348315e-01   3.86607003265e-01
       195   3.75457422045e-01   3.12245095222e-01
       196   4.97395234858e-02   3.63968590918e-01
       197   4.97395234858e-02   4.26468590918e-01
       198   0.00000000000e+00   4.37500000000e-01
       199   0.00000000000e+00   3.12500000000e-01
       200   4.97395234858e-02   3.01468590918e-01
       201   1.25916803447e-01   4.32589430857e-01
       202   7.61772799615e-02   5.06120839939e-01
       203   1.74582896613e-01   4.14601296188e-01
       204   2.01020653089e-01   4.94253545209e-01
       205   1.31141448669e-01   5.65932817797e-01
       206   1.77819773913e-01   3.53526230920e-01
       207   1.61664353784e-01   3.05112919775e-01
       208   2.40005080725e-01   3.05701968859e-01
       209   2.52923623554e-01   4.15190345272e-01
       210   3.26665934939e-01   3.76337451843e-01
       211   3.23429057639e-01   4.37412517111e-01
       212   3.04951987961e-01   2.90022923384e-01
       213   2.88796567832e-01   2.41609612239e-01
       214   1.08386895943e-01   2.02814603569e-01
       215   5.37542173608e-02   2.58049047092e-01
       216   1.03493740847e-01   3.09517638010e-01
       217   1.66557508880e-01   1.98409885334e-01
       218   1.65679047659e-01   2.61693375950e-01
       219   1.00000000000e+00   1.87500000000e-01
       220   9.47368012607e-01   2.35064699965e-01
       221   9.47368012607e-01   1.72564699965e-01
       222   9.37500000000e-01   6.25000000000e-02
       223   9.37500000000e-01   0.00000000000e+00
       224   1.00000000000e+00   6.25000000000e-02
       225   8.24577497479e-01   6.90479547747e-02
       226   7.62077497479e-01   6.90479547747e-02
       227   8.12500000000e-01   0.00000000000e+00
       228   7.54778154613e-01   2.06137679091e-01
       229   8.34445510086e-01   1.79112654740e-01
       230   8.15068669741e-01   2.47154424281e-01
       231   6.97759987047e-01   1.43435153392e-01
       232   1.96659982460e-01   5.72368682709e-01
       233   2.45326075626e-01   5.54380548040e-01
       234   1.75446871206e-01   6.26059820627e-01
       235   7.08789948767e-02   1.86467693429e+00
       236   0.00000000000e+00   1.81250000000e+00
       237   7.08789948767e-02   1.80217693429e+00
       238   6.25000000000e-02   1.93750000000e+00
       239   6.25000000000e-02   2.00000000000e+00
       240   0.00000000000e+00   1.93750000000e+00
       241   1.33378994877e-01   1.92717693429e+00
       242   1.30573470105e-01   1.55779725423e+00
       243   1.67725362295e-01   1.48867629202e+00
       244   1.86934438568e-01   1.57167835833e+00
       245   1.07826848307e-01   1.43497017036e+00
       246   5.56821969158e-02   1.48739759396e+00
       247   5.21446513915e-02   1.44757257640e+00
       248   5.56821969158e-02   1.54989759396e+00
       249   0.00000000000e+00   1.56250000000e+00
       250   7.48912731891e-02   1.63289966027e+00
       251   9.22156063355e-01   1.68514710599e+00
       252   9.30429272529e-01   1.76412394090e+00
       253   8.52585335884e-01   1.69927104689e+00
       254   8.03627827156e-01   1.69864299573e+00
       255   8.11901036330e-01   1.77761983065e+00
       256   3.69164902345e-01   1.57992887816e+00
       257   4.33124071294e-01   1.55940262441e+00
       258   1.89514079437e-01   1.61972007295e+00
       259   2.39125456794e-01   1.67735263957e+00
       260   1.99393923735e-01   1.69843188716e+00
       261   2.96856031850e-01   1.62147167655e+00
       262   2.26665971627e-01   1.55059911074e+00
       263   3.01554482991e-01   1.55709802697e+00
       264   2.98974842122e-01   1.50905631235e+00
       265   3.17992856758e-01   1.94513854443e+00
       266   3.12500000000e-01   2.00000000000e+00
       267   2.55492856758e-01   1.94513854443e+00
       268   3.17406223237e-01   1.82769977176e+00
       269   2.54995507303e-01   1.82317077132e+00
       270   2.01371851635e-01   1.87231547872e+00
       271   1.95381645422e-01   1.80520916118e+00
       272   1.92992856758e-01   1.94513854443e+00
       273   1.87500000000e-01   2.00000000000e+00
       274   5.59775556383e-01   1.87673830799e+00
       275   5.11459680925e-01   1.92538244690e+00
       276   5.21446513915e-02   1.38507257640e+00
       277   0.00000000000e+00   1.43750000000e+00
       278   3.13129747335e-01   1.36401821609e+00
       279   2.53442023037e-01   1.29691991290e+00
       280   3.32812766722e-01   1.29772253748e+00
       281   1.72561698741e-01   1.41900538972e+00
       282   2.28922667204e-01   1.43288649382e+00
       283   1.69024153217e-01   1.37918037216e+00
       284   3.03811178568e-01   1.43938541004e+00
       285   3.83181922254e-01   1.44018803463e+00
       286   6.22626699514e-01   9.24625940011e-01
       287   6.88081663830e-01   8.66002451198e-01
       288   6.64553197565e-01   9.40063398297e-01
       289   6.90428593946e-01   7.90011516261e-01
       290   7.32355091997e-01   8.05448974547e-01
       291   9.38655260345e-01   1.07242802483e+00
       292   9.38655260345e-01   1.00992802483e+00
       293   1.00000000000e+00   1.06250000000e+00
       294   8.87472644454e-01   9.47557773236e-01
       295   9.48817384110e-01   9.37629748407e-01
       296   6.78238389197e-01   1.00031977403e+00
       297   7.43693353513e-01   9.41696285218e-01
       298   8.27506656682e-01   9.38606078883e-01
       299   8.13821465050e-01   8.78349703149e-01
       300   8.17344532917e-01   1.01090435530e+00
       301   3.80226170409e-01   5.24195721330e-02
       302   4.37500000000e-01   0.00000000000e+00
       303   1.93660214577e-01   1.32809166430e-01
       304   2.50952366293e-01   1.91687938811e-01
       305   2.64027535995e-01   6.30436099536e-02
       306   3.15899273528e-01   1.76008893335e-01
       307   3.31753706404e-01   1.15463182087e-01
       308   3.26527535995e-01   6.30436099536e-02
       309   3.12500000000e-01   0.00000000000e+00
       310   5.56415416833e-01   2.30741324302e-01
       311   6.22094775621e-01   1.85878882915e-01
       312   6.98489783532e-01   1.80539639072e-01
       313   6.79112943187e-01   2.48581408614e-01
       314   5.64587949856e-01   2.98818875722e-01
       315   9.43670421871e-01   1.38544650224e-01
       316   8.91038434478e-01   1.86109350189e-01
       317   8.81170421871e-01   7.60446502237e-02
       318   8.30747919350e-01   1.45092604998e-01
       319   9.48767228669e-01   3.76436715492e-01
       320   9.48767228669e-01   3.13936715492e-01
       321   1.00000000000e+00   3.12500000000e-01
       322   8.96135241276e-01   2.99001415457e-01
       323   8.16467885803e-01   3.26026439808e-01
       324   8.30791646203e-01   3.92037022551e-01
       325   7.49725074668e-01   3.40190031375e-01
       326   6.19612997750e-02   8.85676279531e-01
       327   6.19612997750e-02   9.48176279531e-01
       328   0.00000000000e+00   9.37500000000e-01
       329   1.15616881547e-01   6.89172454473e-01
       330   6.06527128399e-02   7.54360476615e-01
       331   6.06527128399e-02   8.16860476615e-01
       332   0.00000000000e+00   8.12500000000e-01
       333   1.22614012615e-01   8.27536756146e-01
       334   1.81135415338e-01   6.95608319385e-01
       335   2.34551525656e-01   6.96034418451e-01
       336   1.74721535998e-01   7.59147052297e-01
       337   1.27933812395e-01   9.57851132377e-01
       338   6.59725126197e-02   1.00967485285e+00
       339   5.46301403080e-02   1.13768718072e+00
       340   5.46301403080e-02   1.20018718072e+00
       341   0.00000000000e+00   1.18750000000e+00
       342   6.59725126197e-02   1.07217485285e+00
       343   0.00000000000e+00   1.06250000000e+00
       344   1.20602652928e-01   1.08486203356e+00
       345   1.85405858578e-01   1.12901418129e+00
       346   2.67338239482e-01   1.16913911772e+00
       347   1.91192661520e-01   1.19049929786e+00
       348   3.05177957215e-01   1.10969772727e+00
       349   3.10964760157e-01   1.17118284384e+00
       350   2.46686813112e-01   1.06528625877e+00
       351   2.90313333787e-01   1.06732998489e+00
       352   1.96748230890e-01   1.06350185342e+00
       353   1.81883607461e-01   1.02113411104e+00
       354   1.08068982760e-01   1.20564555525e+00
       355   5.34388424515e-02   1.25545837453e+00
       356   5.34388424515e-02   1.31795837453e+00
       357   0.00000000000e+00   1.31250000000e+00
       358   1.05583493843e-01   1.32803095093e+00
       359   1.70318344277e-01   1.31206617029e+00
       360   1.90001363663e-01   1.24577049167e+00
       361   3.66048733117e-01   8.06755209207e-01
       362   3.01432279304e-01   8.16369237966e-01
       363   2.92754100130e-01   7.49959122603e-01
       364   2.99167979470e-01   6.86420389692e-01
       365   3.70023252105e-01   1.05573915564e+00
       366   4.37785405958e-01   9.95924122886e-01
       367   4.16566631743e-01   1.05192642063e+00
       368   3.11532108002e-01   1.01132768714e+00
       369   1.81971857506e-01   9.53194073144e-01
       370   2.31910439728e-01   9.54978478494e-01
       371   1.77960644661e-01   8.91695499830e-01
       372   3.11620358046e-01   9.43387649247e-01
       373   3.03362801032e-01   8.80101882584e-01
       374   3.82984469306e-01   9.36451091233e-01
       375   2.30068168044e-01   8.23305795980e-01
       376   1.76652057726e-01   8.22879696914e-01
       377   8.08571120733e-01   1.38405166915e+00
       378   7.38841913229e-01   1.32703274791e+00
       379   8.05725900083e-01   1.31867115765e+00
       380   6.84970159275e-01   1.38760122584e+00
       381   6.82124938626e-01   1.32222071434e+00
       382   5.76106057790e-01   1.43721671203e+00
       383   6.40602460024e-01   1.45314867353e+00
       384   5.88455333141e-01   1.50757619328e+00
       385   4.48911142197e-01   1.50359973018e+00
       386   5.08171860004e-01   1.54744712601e+00
       387   4.58229710964e-01   1.42823253623e+00
       388   6.22837514049e-01   1.31120471902e+00
       389   6.76709268002e-01   1.25063624109e+00
       390   4.96064110266e-02   1.67295436021e+00
       391   4.96064110266e-02   1.73545436021e+00
       392   0.00000000000e+00   1.68750000000e+00
       393   1.24497684216e-01   1.68085402048e+00
       394   1.20485405903e-01   1.78763129450e+00
       395   1.74109061572e-01   1.73848658710e+00
       396   8.86324721803e-01   1.95181811653e+00
       397   9.48824721803e-01   1.95181811653e+00
       398   9.37500000000e-01   2.00000000000e+00
       399   9.48824721803e-01   1.88931811653e+00
       400   1.00000000000e+00   1.93750000000e+00
       401   1.00000000000e+00   1.81250000000e+00
       402   9.30429272529e-01   1.82662394090e+00
       403   8.79253994331e-01   1.84094205743e+00
       404   9.50554757641e-01   1.42549676232e+00
       405   1.00000000000e+00   1.43750000000e+00
       406   9.50554757641e-01   1.48799676232e+00
       407   8.88282311434e-01   1.42584180177e+00
       408   9.37727553794e-01   1.37534503945e+00
       409   8.21398324580e-01   1.43420339202e+00
       410   9.22156063355e-01   1.62264710599e+00
       411   1.00000000000e+00   1.68750000000e+00
       412   9.50554757641e-01   1.55049676232e+00
       413   1.00000000000e+00   1.56250000000e+00
       414   8.72710820996e-01   1.54814386831e+00
       415   5.88477167648e-01   1.80207494528e+00
       416   6.25333362181e-01   1.82804835947e+00
       417   5.20290039997e-01   1.81534350564e+00
       418   5.85847845796e-01   1.76665355712e+00
       419   8.17272337837e-01   1.89505528504e+00
       420   7.98876888563e-01   1.83236110941e+00
       421   7.49919379835e-01   1.83173305825e+00
       422   8.05947616034e-01   1.94323716851e+00
       423   8.12500000000e-01   2.00000000000e+00
       424   7.43447616034e-01   1.94323716851e+00
       425   6.80947616034e-01   1.94323716851e+00
       426   6.87500000000e-01   2.00000000000e+00
       427   6.66763491492e-01   1.89459302959e+00
       428   6.95465102757e-01   1.81992966689e+00
       429   7.08489250524e-01   1.76518838812e+00
       430   3.32915732634e-01   1.87516882887e+00
       431   3.89336242355e-01   1.81259151177e+00
       432   3.89922875876e-01   1.93003028444e+00
       433   4.61253234948e-01   1.81999134318e+00
       434   4.63882556801e-01   1.85541273134e+00
       435   4.52422875876e-01   1.93003028444e+00
       436   4.37500000000e-01   2.00000000000e+00
       437   6.34839109611e-01   7.98251572840e-01
       438   6.79112537778e-01   7.37698096189e-01
       439   6.73264267018e-01   7.00505748351e-01
       440   7.28853751353e-01   6.92265691772e-01
       441   5.41619783057e-01   9.33708609590e-01
       442   5.41713509423e-01   9.95399137494e-01
       443   4.84235059230e-01   9.30420859973e-01
       444   5.65148249322e-01   8.59647662490e-01
       445   4.37691679592e-01   9.34233594982e-01
       446   4.29434122578e-01   8.70947828320e-01
       447   4.20755943404e-01   8.04537712956e-01
       448   4.27883186826e-01   7.30683625820e-01
       449   4.91268576286e-01   7.94876244932e-01
       450   5.53832193153e-01   8.07334242418e-01
       451   5.60959436575e-01   7.33480155282e-01
       452   9.31659547006e-01   1.12944011673e+00
       453   8.70314807351e-01   1.07686814156e+00
       454   8.10348819578e-01   1.06791644721e+00
       455   9.48817384110e-01   8.75129748407e-01
       456   1.00000000000e+00   9.37500000000e-01
       457   9.48817384110e-01   8.12629748407e-01
       458   1.00000000000e+00   8.12500000000e-01
       459   8.79991298739e-01   8.10339880767e-01
       460   9.31173914630e-01   7.47710132360e-01
       461   9.31173914630e-01   6.85210132360e-01
       462   1.00000000000e+00   6.87500000000e-01
       463   7.98524925686e-01   7.37439152165e-01
       464   7.96177995570e-01   8.13430087102e-01
       465   7.92676654926e-01   7.00246804327e-01
       466   6.37411922339e-01   2.94019824777e-01
       467   5.79175300088e-01   3.69855331904e-01
       468   6.93700293420e-01   3.19617864795e-01
       469   7.08024053820e-01   3.85628447538e-01
       470   6.43657102642e-01   4.31750988753e-01
       471   5.70833130159e-01   4.36550039699e-01
       472   9.50107937713e-01   4.26347336665e-01
       473   1.00000000000e+00   4.37500000000e-01
       474   9.50107937713e-01   4.88847336665e-01
       475   8.98875166381e-01   4.27784052157e-01
       476   8.32132355247e-01   4.41947643723e-01
       477   6.17460986328e-01   6.76213723706e-01
       478   6.67202199904e-01   6.30781319289e-01
       479   5.59718351610e-01   6.06986065252e-01
       480   5.54897369461e-01   6.63755726220e-01
       481   5.03216801857e-01   6.64252496828e-01
       482   3.79016096464e-01   4.57349223971e-01
       483   3.05273785080e-01   4.96202117400e-01
       484   7.56979754461e-01   1.69400952420e+00
       485   7.97664054015e-01   1.61566074044e+00
       486   7.02525477383e-01   1.68220613283e+00
       487   6.88960971996e-01   1.06822220215e+00
       488   6.09820816048e-01   1.06658931523e+00
       489   3.98526176835e-01   1.29845833242e+00
       490   3.38838452537e-01   1.23136002923e+00
       491   3.76678170270e-01   1.17191863878e+00
       492   5.02722202833e-01   1.41993467531e+00
       493   4.36992982890e-01   1.35652297975e+00
       494   5.54869329716e-01   1.36550715555e+00
       495   4.43018668705e-01   1.29016047150e+00
       496   9.52065753414e-01   1.18548049121e+00
       497   1.00000000000e+00   1.18750000000e+00
       498   9.52065753414e-01   1.24798049121e+00
       499   8.83725300419e-01   1.18992060794e+00
       500   9.52065753414e-01   1.31048049121e+00
       501   1.00000000000e+00   1.31250000000e+00
       502   8.89793307207e-01   1.31082553066e+00
       503   8.20064099703e-01   1.25380660942e+00
       504   8.19823279290e-01   4.86888108695e-01
       505   7.51739759111e-01   4.51141079089e-01
       506   6.75414801184e-01   5.51285419352e-01
       507   7.31218081874e-01   5.75577443997e-01
       508   6.23356925963e-01   5.52467495597e-01
       509   6.87372807933e-01   4.97263620304e-01
       510   6.95714977863e-01   4.30568912509e-01
       511   9.41150905539e-01   6.10767183809e-01
       512   9.41150905539e-01   5.48267183809e-01
       513   1.00000000000e+00   5.62500000000e-01
       514   8.91258843252e-01   5.37114520474e-01
       515   8.72324820169e-01   6.70977316169e-01
       516   8.02653645836e-01   6.25803855777e-01
       517   8.10866247116e-01   5.46307955840e-01
       518   4.26050839932e-01   6.01984526717e-01
       519   4.21229857783e-01   6.58754187685e-01
       520   3.50717224900e-01   6.68415655710e-01
       521   2.92514650427e-01   6.14490951558e-01
       522   2.96875321056e-01   5.36375814058e-01
       523   3.52462359881e-01   5.56312520918e-01
       524   4.47078769120e-01   4.61272549555e-01
       525   5.01668748412e-01   4.49319929138e-01
       526   4.28923496561e-01   5.20062149844e-01
       527   5.66150550965e-01   5.11215585988e-01
       528   4.20525032537e-01   5.60235846502e-01
       529   5.02511976612e-01   5.65734155644e-01
       530   5.54192544216e-01   5.65237385036e-01
       531   6.83222020587e-01   1.60629351836e+00
       532   6.34189897615e-01   1.56253396129e+00
       533   7.01983858348e-01   1.56726771184e+00
       534   6.34731516650e-01   1.67747238229e+00
       535   5.69693495381e-01   1.54660199980e+00
       536   5.53906424478e-01   1.60240489403e+00
       537   5.66544389000e-01   1.69074094265e+00
       538   8.10785498951e-01   1.48664723662e+00
       539   7.31074308249e-01   1.44485710400e+00
       540   7.35738731970e-01   1.55416410875e+00
       541   6.86706608998e-01   1.51040455168e+00
       542   7.82386804666e-01   1.55879758029e+00
       543   6.74357333647e-01   1.44004507044e+00
       544   8.10359365612e-01   1.14398589618e+00
       545   7.57389091179e-01   1.07802210993e+00
       546   6.88971518029e-01   1.14429165113e+00
       547   8.30765572020e-01   1.20002627066e+00
       548   7.46698164896e-01   1.20787189765e+00
       549   6.87410740319e-01   1.19685590233e+00
       550   6.18982621136e-01   1.18705599456e+00
       551   5.61270166648e-01   1.07253764981e+00
       552   5.03885442822e-01   1.06924990019e+00
       553   5.71992749447e-01   1.14044007793e+00
       554   4.36123288969e-01   1.12906493295e+00
       555   4.63996981349e-01   1.18924211834e+00
       556   5.70431971736e-01   1.19300432914e+00
       557   5.56891932438e-01   1.25615480138e+00
       558   5.62307603061e-01   1.32773927464e+00
       559   4.88923748105e-01   1.31045723791e+00
       560   5.09902060748e-01   1.20953888475e+00
       561   4.50456942050e-01   1.25239259058e+00
ENDOFSECTION
      ELEMENTS/CELLS 2.4.6
       1  3  6      15     154      14     155       5     156
       2  3  6       6     157      15     156       5     158
       3  3  6       6     159       7     160      15     157
       4  3  6      47     161      46     162      37     163
       5  3  6      47     164      55     165      46     161
       6  3  6     141     166     150     167     149     168
       7  3  6     131     169     130     170     122     171
       8  3  6     130     172     121     173     122     170
       9  3  6     121     172     130     174     129     175
      10  3  6      11     176       2     177       3     178
      11  3  6      10     179      11     180      19     181
      12  3  6       2     182      10     183       1     184
      13  3  6      10     182       2     176      11     179
      14  3  6      14     185      13     186       5     155
      15  3  6      13     185      14     187      22     188
      16  3  6      23     189      14     154      15     190
      17  3  6      14     189      23     191      22     187
      18  3  6      31     192      23     193      32     194
      19  3  6      23     192      31     195      22     191
      20  3  6      28     196      29     197      37     198
      21  3  6      29     196      28     199      19     200
      22  3  6      29     201      38     202      37     197
      23  3  6      38     201      29     203      39     204
      24  3  6      38     205      47     163      37     202
      25  3  6      30     206      29     207      21     208
      26  3  6      29     206      30     209      39     203
      27  3  6      30     210      31     211      39     209
      28  3  6      22     212      30     208      21     213
      29  3  6      31     210      30     212      22     195
      30  3  6      11     214      20     215      19     180
      31  3  6      20     216      29     200      19     215
      32  3  6      20     214      11     217      21     218
      33  3  6      29     216      20     218      21     207
      34  3  6      18     219      27     220      26     221
      35  3  6      18     222       8     223       9     224
      36  3  6       8     225      16     226       7     227
      37  3  6      25     228      16     229      26     230
      38  3  6       7     226      16     231      15     160
      39  3  6      48     232      38     204      39     233
      40  3  6      38     232      48     234      47     205
      41  3  6     137     235     136     236     127     237
      42  3  6     136     238     146     239     145     240
      43  3  6     146     238     136     235     137     241
      44  3  6     119     242     110     243     111     244
      45  3  6     101     245     110     246     109     247
      46  3  6     110     248     118     249     109     246
      47  3  6     118     248     110     242     119     250
      48  3  6     125     251     135     252     134     253
      49  3  6     133     254     125     253     134     255
      50  3  6     121     256     112     257     122     173
      51  3  6     119     258     120     259     129     260
      52  3  6     120     261     121     175     129     259
      53  3  6     120     258     119     244     111     262
      54  3  6     112     263     120     262     111     264
      55  3  6     120     263     112     256     121     261
      56  3  6     138     265     148     266     147     267
      57  3  6     130     268     138     269     129     174
      58  3  6     138     270     137     271     129     269
      59  3  6     146     272     138     267     147     273
      60  3  6     138     272     146     241     137     270
      61  3  6     140     274     141     168     149     275
      62  3  6     100     276     101     247     109     277
      63  3  6     103     278     102     279      93     280
      64  3  6     110     281     102     282     111     243
      65  3  6     102     281     110     245     101     283
      66  3  6     102     284     112     264     111     282
      67  3  6     112     284     102     278     103     285
      68  3  6      78     286      69     287      70     288
      69  3  6      69     289      61     290      70     287
      70  3  6      90     291      80     292      81     293
      71  3  6      80     294      71     295      81     292
      72  3  6      79     296      78     288      70     297
      73  3  6      71     298      79     297      70     299
      74  3  6      79     298      71     294      80     300
      75  3  6      13     301       4     302       5     186
      76  3  6      11     303      12     304      21     217
      77  3  6      12     303      11     178       3     305
      78  3  6      12     306      22     213      21     304
      79  3  6      12     307      13     188      22     306
      80  3  6       4     308      12     305       3     309
      81  3  6      12     308       4     301      13     307
      82  3  6      24     310      23     190      15     311
      83  3  6      16     312      24     311      15     231
      84  3  6      24     312      16     228      25     313
      85  3  6      23     310      24     314      32     193
      86  3  6      17     315      18     221      26     316
      87  3  6      18     315      17     317       8     222
      88  3  6      16     318      17     316      26     229
      89  3  6      17     318      16     225       8     317
      90  3  6      36     319      35     320      27     321
      91  3  6      27     320      35     322      26     220
      92  3  6      35     323      25     230      26     322
      93  3  6      35     324      34     325      25     323
      94  3  6      64     326      65     327      73     328
      95  3  6      47     329      56     330      55     164
      96  3  6      56     331      64     332      55     330
      97  3  6      64     331      56     333      65     326
      98  3  6      56     334      48     335      57     336
      99  3  6      48     334      56     329      47     234
     100  3  6      65     337      74     338      73     327
     101  3  6      82     339      83     340      91     341
     102  3  6      74     342      82     343      73     338
     103  3  6      82     342      74     344      83     339
     104  3  6      83     345      84     346      93     347
     105  3  6      84     348      85     349      93     346
     106  3  6      85     348      84     350      75     351
     107  3  6      84     352      74     353      75     350
     108  3  6      74     352      84     345      83     344
     109  3  6      83     354      92     355      91     340
     110  3  6      92     356     100     357      91     355
     111  3  6     100     356      92     358     101     276
     112  3  6      92     359     102     283     101     358
     113  3  6      92     354      83     347      93     360
     114  3  6     102     359      92     360      93     279
     115  3  6      58     361      67     362      57     363
     116  3  6      48     364      58     363      57     335
     117  3  6      85     365      76     366      77     367
     118  3  6      76     365      85     351      75     368
     119  3  6      74     369      66     370      75     353
     120  3  6      66     369      74     337      65     371
     121  3  6      66     372      76     368      75     370
     122  3  6      76     372      66     373      67     374
     123  3  6      67     373      66     375      57     362
     124  3  6      66     376      56     336      57     375
     125  3  6      56     376      66     371      65     333
     126  3  6     107     377     106     378      97     379
     127  3  6     106     380     105     381      97     378
     128  3  6     113     382     105     383     114     384
     129  3  6     112     385     113     386     122     257
     130  3  6     113     385     112     285     103     387
     131  3  6     105     388      96     389      97     381
     132  3  6     118     390     128     391     127     392
     133  3  6     128     390     118     250     119     393
     134  3  6     128     394     137     237     127     391
     135  3  6     137     394     128     395     129     271
     136  3  6     128     393     119     260     129     395
     137  3  6     152     396     143     397     153     398
     138  3  6     143     399     144     400     153     397
     139  3  6     135     401     144     402     134     252
     140  3  6     144     399     143     403     134     402
     141  3  6     116     404     108     405     117     406
     142  3  6     108     404     116     407     107     408
     143  3  6     116     409     106     377     107     407
     144  3  6     125     410     126     411     135     251
     145  3  6     126     412     116     406     117     413
     146  3  6     116     412     126     410     125     414
     147  3  6     140     415     132     416     141     274
     148  3  6     132     415     140     417     131     418
     149  3  6     143     419     142     420     134     403
     150  3  6     142     421     133     255     134     420
     151  3  6     142     422     152     423     151     424
     152  3  6     152     422     142     419     143     396
     153  3  6     150     425     142     424     151     426
     154  3  6     142     425     150     166     141     427
     155  3  6     132     428     142     427     141     416
     156  3  6     142     428     132     429     133     421
     157  3  6     139     430     138     268     130     431
     158  3  6     138     430     139     432     148     265
     159  3  6     131     433     139     431     130     169
     160  3  6     140     434     139     433     131     417
     161  3  6     148     432     139     435     149     436
     162  3  6     139     434     140     275     149     435
     163  3  6      69     437      60     438      61     289
     164  3  6      61     438      60     439      52     440
     165  3  6      68     441      78     442      77     443
     166  3  6      68     444      69     286      78     441
     167  3  6      76     445      68     443      77     366
     168  3  6      68     445      76     374      67     446
     169  3  6      68     447      58     448      59     449
     170  3  6      58     447      68     446      67     361
     171  3  6      60     450      68     449      59     451
     172  3  6      68     450      60     437      69     444
     173  3  6      90     452      89     453      80     291
     174  3  6      89     454      79     300      80     453
     175  3  6      71     455      72     456      81     295
     176  3  6      72     455      71     457      63     458
     177  3  6      71     459      62     460      63     457
     178  3  6      62     461      54     462      63     460
     179  3  6      61     463      62     464      70     290
     180  3  6      62     459      71     299      70     464
     181  3  6      62     463      61     440      52     465
     182  3  6      24     466      33     467      32     314
     183  3  6      33     466      24     313      25     468
     184  3  6      34     469      33     468      25     325
     185  3  6      33     470      42     471      32     467
     186  3  6      44     472      36     473      45     474
     187  3  6      44     475      35     319      36     472
     188  3  6      44     476      34     324      35     475
     189  3  6      60     477      51     478      52     439
     190  3  6      50     479      51     480      59     481
     191  3  6      51     477      60     451      59     480
     192  3  6      31     482      40     483      39     211
     193  3  6     133     484     124     485     125     254
     194  3  6     132     486     124     484     133     429
     195  3  6      79     487      87     488      78     296
     196  3  6      94     489     103     280      93     490
     197  3  6      85     491      94     490      93     349
     198  3  6     104     492     113     387     103     493
     199  3  6     113     492     104     494     105     382
     200  3  6      94     495     104     493     103     489
     201  3  6      98     496      90     497      99     498
     202  3  6      98     499      89     452      90     496
     203  3  6     108     500      98     498      99     501
     204  3  6      98     500     108     408     107     502
     205  3  6      98     502     107     379      97     503
     206  3  6      44     504      43     505      34     476
     207  3  6      51     506      43     507      52     478
     208  3  6      43     506      51     508      42     509
     209  3  6      33     510      43     509      42     470
     210  3  6      43     510      33     469      34     505
     211  3  6      54     511      53     512      45     513
     212  3  6      53     514      44     474      45     512
     213  3  6      62     515      53     511      54     461
     214  3  6      53     515      62     465      52     516
     215  3  6      43     517      53     516      52     507
     216  3  6      53     517      43     504      44     514
     217  3  6      49     518      50     481      59     519
     218  3  6      58     520      49     519      59     448
     219  3  6      49     520      58     364      48     521
     220  3  6      49     521      48     233      39     522
     221  3  6      40     523      49     522      39     483
     222  3  6      41     524      31     194      32     525
     223  3  6      41     526      40     482      31     524
     224  3  6      42     527      41     525      32     471
     225  3  6      49     528      41     529      50     518
     226  3  6      41     528      49     523      40     526
     227  3  6      51     530      41     527      42     508
     228  3  6      41     530      51     479      50     529
     229  3  6     124     531     123     532     114     533
     230  3  6     123     531     124     486     132     534
     231  3  6     113     535     123     536     122     386
     232  3  6     123     535     113     384     114     532
     233  3  6     123     537     131     171     122     536
     234  3  6     123     534     132     418     131     537
     235  3  6     116     538     115     539     106     409
     236  3  6     115     540     124     533     114     541
     237  3  6     115     538     116     414     125     542
     238  3  6     124     540     115     542     125     485
     239  3  6     105     543     115     541     114     383
     240  3  6     106     539     115     543     105     380
     241  3  6      89     544      88     545      79     454
     242  3  6      88     546      87     487      79     545
     243  3  6      88     547      98     503      97     548
     244  3  6      98     547      88     544      89     499
     245  3  6      96     549      88     548      97     389
     246  3  6      87     546      88     549      96     550
     247  3  6      78     551      86     552      77     442
     248  3  6      87     553      86     551      78     488
     249  3  6      86     554      85     367      77     552
     250  3  6      86     555      94     491      85     554
     251  3  6      86     553      87     550      96     556
     252  3  6      95     557      96     388     105     558
     253  3  6     104     559      95     558     105     494
     254  3  6      95     560      86     556      96     557
     255  3  6      95     559     104     495      94     561
     256  3  6      86     560      95     561      94     555
ENDOFSECTION
       ELEMENT GROUP 2.4.6
GROUP:          1 ELEMENTS:        256 MATERIAL:          2 NFLAGS:          1
                               5
       0
       1       2       3       4       5       6       7       8       9      10
      11      12      13      14      15      16      17      18      19      20
      21      22      23      24      25      26      27      28      29      30
      31      32      33      34      35      36      37      38      39      40
      41      42      43      44      45      46      47      48      49      50
      51      52      53      54      55      56      57      58      59      60
      61      62      63      64      65      66      67      68      69      70
      71      72      73      74      75      76      77      78      79      80
      81      82      83      84      85      86      87      88      89      90
      91      92      93      94      95      96      97      98      99     100
     101     102     103     104     105     106     107     108     109     110
     111     112     113     114     115     116     117     118     119     120
     121     122     123     124     125     126     127     128     129     130
     131     132     133     134     135     136     137     138     139     140
     141     142     143     144     145     146     147     148     149     150
     151     152     153     154     155     156     157     158     159     160
     161     162     163     164     165     166     167     168     169     170
     171     172     173     174     175     176     177     178     179     180
     181     182     183     184     185     186     187     188     189     190
     191     192     193     194     195     196     197     198     199     200
     201     202     203     204     205     206     207     208     209     210
     211     212     213     214     215     216     217     218     219     220
     221     222     223     224     225     226     227     228     229     230
     231     232     233     234     235     236     237     238     239     240
     241     242     243     244     245     246     247     248     249     250
     251     252     253     254     255     256
ENDOFSECTION
