        CONTROL INFO 2.4.6
** GAMBIT NEUTRAL FILE
sphereTet
PROGRAM:                Gambit     VERSION:  2.4.6
24 Jan 2026    08:27:29 
     NUMNP     NELEM     NGRPS    NBSETS     NDFCD     NDFVL
        25         8         1         1         3         3
ENDOFSECTION
   NODAL COORDINATES 2.4.6
         1   6.12323399574e-17  -3.06161699787e-17   5.00000000000e-01
         2   5.00000000000e-01  -2.36515318483e-50   0.00000000000e+00
         3   3.53553390593e-01  -2.16489014059e-17   3.53553390593e-01
         4   5.20333700662e-50  -5.00000000000e-01   0.00000000000e+00
         5  -2.16489014059e-17  -3.53553390593e-01   3.53553390593e-01
         6   3.06161699787e-17   3.06161699787e-17  -5.00000000000e-01
         7  -5.00000000000e-01  -2.36515318483e-50   0.00000000000e+00
         8  -3.53553390593e-01   2.16489014059e-17  -3.53553390593e-01
         9   2.16489014059e-17  -3.53553390593e-01  -3.53553390593e-01
        10  -3.53553390593e-01  -3.53553390593e-01   0.00000000000e+00
        11   3.53553390593e-01  -3.53553390593e-01   0.00000000000e+00
        12  -4.63510593221e-34  -4.63510593221e-34   0.00000000000e+00
        13  -2.31755296610e-34  -2.50000000000e-01   0.00000000000e+00
        14  -2.50000000000e-01  -2.31755296610e-34   0.00000000000e+00
        15   5.20333700662e-50   5.00000000000e-01   0.00000000000e+00
        16  -3.53553390593e-01   3.53553390593e-01   0.00000000000e+00
        17   3.06161699787e-17  -1.53080849893e-17   2.50000000000e-01
        18  -3.53553390593e-01  -2.16489014059e-17   3.53553390593e-01
        19  -2.16489014059e-17   3.53553390593e-01   3.53553390593e-01
        20   1.53080849893e-17   1.53080849893e-17  -2.50000000000e-01
        21   2.16489014059e-17   3.53553390593e-01  -3.53553390593e-01
        22   3.53553390593e-01   2.16489014059e-17  -3.53553390593e-01
        23   2.50000000000e-01  -2.31755296610e-34   0.00000000000e+00
        24  -2.31755296610e-34   2.50000000000e-01   0.00000000000e+00
        25   3.53553390593e-01   3.53553390593e-01   0.00000000000e+00
ENDOFSECTION
      ELEMENTS/CELLS 2.4.6
       1  6 10       12      14       7      24      16      15      20
                      8      21       6
       2  6 10       12      24      15      14      16       7      17
                     19      18       1
       3  6 10       15      19       1      24      17      12      25
                      3      23       2
       4  6 10        7       8       6      14      20      12      10
                      9      13       4
       5  6 10        7      18       1      10       5       4      14
                     17      13      12
       6  6 10       12      23       2      13      11       4      20
                     22       9       6
       7  6 10       12      13       4      23      11       2      17
                      5       3       1
       8  6 10       15      21       6      25      22       2      24
                     20      23      12
ENDOFSECTION
       ELEMENT GROUP 2.4.6
GROUP:          1 ELEMENTS:          8 MATERIAL:          2 NFLAGS:          1
                               5
       0
       8       7       6       5       4       3       2       1
ENDOFSECTION
 BOUNDARY CONDITIONS 2.4.6
                               1       1       8       0       6
         4    6    2
         6    6    3
         5    6    1
         7    6    3
         8    6    1
         1    6    3
         3    6    2
         2    6    3
ENDOFSECTION
